<svg xmlns="http://www.w3.org/2000/svg" viewBox="0 0 640 360" width="640" height="360" font-family="ui-sans-serif, system-ui, sans-serif" font-size="15">
  <title>Policzone odsetki anulowanych zamówień rosną jak rozciągnięte S, a prosta przez punkty przy 6 i 10 minutach schodzi poniżej 0 przy 2 minutach i wychodzi ponad 1 przy 14 minutach</title>
  <g fill="#8a847d" fill-opacity="0.12">
    <rect x="80" y="50" width="480" height="65" />
    <rect x="80" y="245" width="480" height="65" />
  </g>
  <g fill="none" stroke="#8a847d" stroke-width="1.5" stroke-linecap="round" stroke-linejoin="round">
    <path d="M80 30V310H600" />
    <path d="M74 40l6-10 6 10M590 304l10 6-10 6" />
  </g>
  <g stroke="#8a847d" stroke-width="1.5">
    <path d="M80 310v5" />
    <path d="M140 310v5" />
    <path d="M200 310v5" />
    <path d="M260 310v5" />
    <path d="M320 310v5" />
    <path d="M380 310v5" />
    <path d="M440 310v5" />
    <path d="M500 310v5" />
    <path d="M560 310v5" />
    <path d="M80 310h-5" />
    <path d="M80 245h-5" />
    <path d="M80 180h-5" />
    <path d="M80 115h-5" />
    <path d="M80 50h-5" />
  </g>
  <g fill="#8a847d" font-size="13">
    <text x="80" y="331" text-anchor="middle">0</text>
    <text x="140" y="331" text-anchor="middle">2</text>
    <text x="200" y="331" text-anchor="middle">4</text>
    <text x="260" y="331" text-anchor="middle">6</text>
    <text x="320" y="331" text-anchor="middle">8</text>
    <text x="380" y="331" text-anchor="middle">10</text>
    <text x="440" y="331" text-anchor="middle">12</text>
    <text x="500" y="331" text-anchor="middle">14</text>
    <text x="560" y="331" text-anchor="middle">16</text>
    <text x="71" y="314.5" text-anchor="end">−0,5</text>
    <text x="71" y="249.5" text-anchor="end">0</text>
    <text x="71" y="184.5" text-anchor="end">0,5</text>
    <text x="71" y="119.5" text-anchor="end">1</text>
    <text x="71" y="54.5" text-anchor="end">1,5</text>
  </g>
  <g fill="#8a847d">
    <text x="600" y="352" text-anchor="end">czas oczekiwania (min)</text>
    <text x="92" y="40">prawdopodobieństwo</text>
    <text x="92" y="87.5" font-size="14">niemożliwe dla prawdopodobieństwa</text>
    <text x="548" y="282.5" text-anchor="end" font-size="14">niemożliwe dla prawdopodobieństwa</text>
  </g>
  <path d="M80 245H560" stroke="#8a847d" stroke-width="1.5" stroke-dasharray="4 4" />
  <path d="M80 115H560" stroke="#8a847d" stroke-width="1.5" stroke-dasharray="4 4" />
  <path d="M80 299.6L560 60.4" stroke="#2f6fdb" stroke-width="3" stroke-linecap="round" />
  <g fill="#e8590c">
    <circle cx="140" cy="238.5" r="6" />
    <circle cx="200" cy="229.4" r="6" />
    <circle cx="260" cy="209.9" r="6" />
    <circle cx="320" cy="180" r="6" />
    <circle cx="380" cy="150.1" r="6" />
    <circle cx="440" cy="130.6" r="6" />
    <circle cx="500" cy="121.5" r="6" />
  </g>
  <g fill="#2f6fdb">
    <circle cx="140" cy="269.7" r="5" />
    <circle cx="500" cy="90.3" r="5" />
  </g>
  <g fill="#8a847d">
    <text x="152" y="289.7" font-size="14">−0,19</text>
    <text x="488" y="84.3" text-anchor="end" font-size="14">1,19</text>
  </g>
  <g fill="#8a847d">
    <circle cx="420" cy="185" r="6" fill="#e8590c" />
    <text x="438" y="190">policzone</text>
    <path d="M410 210H430" stroke="#2f6fdb" stroke-width="3" stroke-linecap="round" />
    <text x="438" y="215">prosta</text>
  </g>
</svg>
